{
  "asset": {
    "version": "2.0",
    "generator": "ghost_port nod_to_gltf.py",
    "extras": {
      "source": "/home/scott/Games/xemu/starcraft_ghost/3D/Models/121_TrenchCap_01.nod",
      "vertex_count": 279,
      "triangle_count": 1077,
      "vertex_stride": 32,
      "materials": [
        "MS_Trench_Beam",
        "MS_Trench_Sandbags",
        "MS_Ground_Dark",
        "MS_TrenchFloor_Grate"
      ]
    }
  },
  "scene": 0,
  "scenes": [
    {
      "name": "121_TrenchCap_01",
      "nodes": [
        0
      ]
    }
  ],
  "nodes": [
    {
      "name": "121_TrenchCap_01",
      "mesh": 0
    }
  ],
  "meshes": [
    {
      "name": "121_TrenchCap_01_mesh",
      "primitives": [
        {
          "attributes": {
            "POSITION": 0,
            "NORMAL": 1,
            "TEXCOORD_0": 2
          },
          "indices": 3,
          "mode": 4
        }
      ]
    }
  ],
  "buffers": [
    {
      "uri": "data:application/octet-stream;base64,",
      "byteLength": 15392
    }
  ],
  "bufferViews": [
    {
      "buffer": 0,
      "byteOffset": 0,
      "byteLength": 3348,
      "target": 34962,
      "byteStride": 12
    },
    {
      "buffer": 0,
      "byteOffset": 3348,
      "byteLength": 3348,
      "target": 34962,
      "byteStride": 12
    },
    {
      "buffer": 0,
      "byteOffset": 6696,
      "byteLength": 2232,
      "target": 34962,
      "byteStride": 8
    },
    {
      "buffer": 0,
      "byteOffset": 8928,
      "byteLength": 6464,
      "target": 34963
    }
  ],
  "accessors": [
    {
      "bufferView": 0,
      "componentType": 5126,
      "count": 279,
      "type": "VEC3",
      "min": [
        -3.950439453125,
        -2.645310878753662,
        -7.281603813171387
      ],
      "max": [
        3.9431915283203125,
        0.09179992228746414,
        -1.490415334701538
      ]
    },
    {
      "bufferView": 1,
      "componentType": 5126,
      "count": 279,
      "type": "VEC3"
    },
    {
      "bufferView": 2,
      "componentType": 5126,
      "count": 279,
      "type": "VEC2"
    },
    {
      "bufferView": 3,
      "componentType": 5123,
      "count": 3231,
      "type": "SCALAR"
    }
  ]
}