{
  "asset": {
    "version": "2.0",
    "generator": "ghost_port nod_to_gltf.py",
    "extras": {
      "source": "/home/scott/Games/xemu/starcraft_ghost/3D/Models/121_TrenchLong_01.nod",
      "vertex_count": 582,
      "triangle_count": 2458,
      "vertex_stride": 32,
      "materials": [
        "MS_Trench_Beam",
        "MS_Trench_Sandbags",
        "MS_Ground_Dark",
        "MS_TrenchFloor_Grate"
      ]
    }
  },
  "scene": 0,
  "scenes": [
    {
      "name": "121_TrenchLong_01",
      "nodes": [
        0
      ]
    }
  ],
  "nodes": [
    {
      "name": "121_TrenchLong_01",
      "mesh": 0
    }
  ],
  "meshes": [
    {
      "name": "121_TrenchLong_01_mesh",
      "primitives": [
        {
          "attributes": {
            "POSITION": 0,
            "NORMAL": 1,
            "TEXCOORD_0": 2
          },
          "indices": 3,
          "mode": 4
        }
      ]
    }
  ],
  "buffers": [
    {
      "uri": "data:application/octet-stream;base64,",
      "byteLength": 33372
    }
  ],
  "bufferViews": [
    {
      "buffer": 0,
      "byteOffset": 0,
      "byteLength": 6984,
      "target": 34962,
      "byteStride": 12
    },
    {
      "buffer": 0,
      "byteOffset": 6984,
      "byteLength": 6984,
      "target": 34962,
      "byteStride": 12
    },
    {
      "buffer": 0,
      "byteOffset": 13968,
      "byteLength": 4656,
      "target": 34962,
      "byteStride": 8
    },
    {
      "buffer": 0,
      "byteOffset": 18624,
      "byteLength": 14748,
      "target": 34963
    }
  ],
  "accessors": [
    {
      "bufferView": 0,
      "componentType": 5126,
      "count": 582,
      "type": "VEC3",
      "min": [
        -6.25,
        -4.559879779815674,
        -7.281603813171387
      ],
      "max": [
        6.25,
        4.20681619644165,
        -1.4840360879898071
      ]
    },
    {
      "bufferView": 1,
      "componentType": 5126,
      "count": 582,
      "type": "VEC3"
    },
    {
      "bufferView": 2,
      "componentType": 5126,
      "count": 582,
      "type": "VEC2"
    },
    {
      "bufferView": 3,
      "componentType": 5123,
      "count": 7374,
      "type": "SCALAR"
    }
  ]
}