{
  "asset": {
    "version": "2.0",
    "generator": "ghost_port nod_to_gltf.py",
    "extras": {
      "source": "/home/scott/Games/xemu/starcraft_ghost/3D/Models/121_Trench3Way_01.nod",
      "vertex_count": 944,
      "triangle_count": 3785,
      "vertex_stride": 32,
      "materials": [
        "MS_Trench_Beam",
        "MS_Trench_Sandbags",
        "MS_Ground_Dark",
        "MS_TrenchFloor_Grate"
      ]
    }
  },
  "scene": 0,
  "scenes": [
    {
      "name": "121_Trench3Way_01",
      "nodes": [
        0
      ]
    }
  ],
  "nodes": [
    {
      "name": "121_Trench3Way_01",
      "mesh": 0
    }
  ],
  "meshes": [
    {
      "name": "121_Trench3Way_01_mesh",
      "primitives": [
        {
          "attributes": {
            "POSITION": 0,
            "NORMAL": 1,
            "TEXCOORD_0": 2
          },
          "indices": 3,
          "mode": 4
        }
      ]
    }
  ],
  "buffers": [
    {
      "uri": "data:application/octet-stream;base64,",
      "byteLength": 52920
    }
  ],
  "bufferViews": [
    {
      "buffer": 0,
      "byteOffset": 0,
      "byteLength": 11328,
      "target": 34962,
      "byteStride": 12
    },
    {
      "buffer": 0,
      "byteOffset": 11328,
      "byteLength": 11328,
      "target": 34962,
      "byteStride": 12
    },
    {
      "buffer": 0,
      "byteOffset": 22656,
      "byteLength": 7552,
      "target": 34962,
      "byteStride": 8
    },
    {
      "buffer": 0,
      "byteOffset": 30208,
      "byteLength": 22712,
      "target": 34963
    }
  ],
  "accessors": [
    {
      "bufferView": 0,
      "componentType": 5126,
      "count": 944,
      "type": "VEC3",
      "min": [
        -4.077917098999023,
        -5.1158246994018555,
        -7.467152118682861
      ],
      "max": [
        4.044868469238281,
        3.911648988723755,
        -1.2327522039413452
      ]
    },
    {
      "bufferView": 1,
      "componentType": 5126,
      "count": 944,
      "type": "VEC3"
    },
    {
      "bufferView": 2,
      "componentType": 5126,
      "count": 944,
      "type": "VEC2"
    },
    {
      "bufferView": 3,
      "componentType": 5123,
      "count": 11355,
      "type": "SCALAR"
    }
  ]
}