{
  "asset": {
    "version": "2.0",
    "generator": "ghost_port nod_to_gltf.py",
    "extras": {
      "source": "/home/scott/Games/xemu/starcraft_ghost/3D/Models/121_TrenchShort_01.nod",
      "vertex_count": 294,
      "triangle_count": 1274,
      "vertex_stride": 32,
      "materials": [
        "MS_Trench_Beam",
        "MS_Trench_Sandbags",
        "MS_Ground_Dark",
        "MS_TrenchFloor_Grate"
      ]
    }
  },
  "scene": 0,
  "scenes": [
    {
      "name": "121_TrenchShort_01",
      "nodes": [
        0
      ]
    }
  ],
  "nodes": [
    {
      "name": "121_TrenchShort_01",
      "mesh": 0
    }
  ],
  "meshes": [
    {
      "name": "121_TrenchShort_01_mesh",
      "primitives": [
        {
          "attributes": {
            "POSITION": 0,
            "NORMAL": 1,
            "TEXCOORD_0": 2
          },
          "indices": 3,
          "mode": 4
        }
      ]
    }
  ],
  "buffers": [
    {
      "uri": "data:application/octet-stream;base64,",
      "byteLength": 17052
    }
  ],
  "bufferViews": [
    {
      "buffer": 0,
      "byteOffset": 0,
      "byteLength": 3528,
      "target": 34962,
      "byteStride": 12
    },
    {
      "buffer": 0,
      "byteOffset": 3528,
      "byteLength": 3528,
      "target": 34962,
      "byteStride": 12
    },
    {
      "buffer": 0,
      "byteOffset": 7056,
      "byteLength": 2352,
      "target": 34962,
      "byteStride": 8
    },
    {
      "buffer": 0,
      "byteOffset": 9408,
      "byteLength": 7644,
      "target": 34963
    }
  ],
  "accessors": [
    {
      "bufferView": 0,
      "componentType": 5126,
      "count": 294,
      "type": "VEC3",
      "min": [
        -3.7499992847442627,
        -4.304186820983887,
        -7.281603813171387
      ],
      "max": [
        3.7500007152557373,
        4.243322849273682,
        -1.6916505098342896
      ]
    },
    {
      "bufferView": 1,
      "componentType": 5126,
      "count": 294,
      "type": "VEC3"
    },
    {
      "bufferView": 2,
      "componentType": 5126,
      "count": 294,
      "type": "VEC2"
    },
    {
      "bufferView": 3,
      "componentType": 5123,
      "count": 3822,
      "type": "SCALAR"
    }
  ]
}