{
  "asset": {
    "version": "2.0",
    "generator": "ghost_port nod_to_gltf.py",
    "extras": {
      "source": "/home/scott/Games/xemu/starcraft_ghost/3D/Models/AB_crateSmall_01.nod",
      "vertex_count": 504,
      "triangle_count": 2062,
      "vertex_stride": 32,
      "materials": [
        "GE_Crate_03_sml",
        "GE_Crate_03_sml_Closed_glo"
      ]
    }
  },
  "scene": 0,
  "scenes": [
    {
      "name": "AB_crateSmall_01",
      "nodes": [
        0
      ]
    }
  ],
  "nodes": [
    {
      "name": "AB_crateSmall_01",
      "mesh": 0
    }
  ],
  "meshes": [
    {
      "name": "AB_crateSmall_01_mesh",
      "primitives": [
        {
          "attributes": {
            "POSITION": 0,
            "NORMAL": 1,
            "TEXCOORD_0": 2
          },
          "indices": 3,
          "mode": 4
        }
      ]
    }
  ],
  "buffers": [
    {
      "uri": "data:application/octet-stream;base64,",
      "byteLength": 28500
    }
  ],
  "bufferViews": [
    {
      "buffer": 0,
      "byteOffset": 0,
      "byteLength": 6048,
      "target": 34962,
      "byteStride": 12
    },
    {
      "buffer": 0,
      "byteOffset": 6048,
      "byteLength": 6048,
      "target": 34962,
      "byteStride": 12
    },
    {
      "buffer": 0,
      "byteOffset": 12096,
      "byteLength": 4032,
      "target": 34962,
      "byteStride": 8
    },
    {
      "buffer": 0,
      "byteOffset": 16128,
      "byteLength": 12372,
      "target": 34963
    }
  ],
  "accessors": [
    {
      "bufferView": 0,
      "componentType": 5126,
      "count": 504,
      "type": "VEC3",
      "min": [
        -0.9384679794311523,
        -0.9384728670120239,
        -7.578452641610056e-05
      ],
      "max": [
        0.9386591911315918,
        0.9384716749191284,
        1.7273582220077515
      ]
    },
    {
      "bufferView": 1,
      "componentType": 5126,
      "count": 504,
      "type": "VEC3"
    },
    {
      "bufferView": 2,
      "componentType": 5126,
      "count": 504,
      "type": "VEC2"
    },
    {
      "bufferView": 3,
      "componentType": 5123,
      "count": 6186,
      "type": "SCALAR"
    }
  ]
}