{
  "asset": {
    "version": "2.0",
    "generator": "ghost_port nod_to_gltf.py",
    "extras": {
      "source": "/home/scott/Games/xemu/starcraft_ghost/3D/Models/AB_crateLarge_01.nod",
      "vertex_count": 552,
      "triangle_count": 2723,
      "vertex_stride": 32,
      "materials": [
        "GE_Crate_03_Lrg",
        "physclip"
      ]
    }
  },
  "scene": 0,
  "scenes": [
    {
      "name": "AB_crateLarge_01",
      "nodes": [
        0
      ]
    }
  ],
  "nodes": [
    {
      "name": "AB_crateLarge_01",
      "mesh": 0
    }
  ],
  "meshes": [
    {
      "name": "AB_crateLarge_01_mesh",
      "primitives": [
        {
          "attributes": {
            "POSITION": 0,
            "NORMAL": 1,
            "TEXCOORD_0": 2
          },
          "indices": 3,
          "mode": 4
        }
      ]
    }
  ],
  "buffers": [
    {
      "uri": "data:application/octet-stream;base64,",
      "byteLength": 34004
    }
  ],
  "bufferViews": [
    {
      "buffer": 0,
      "byteOffset": 0,
      "byteLength": 6624,
      "target": 34962,
      "byteStride": 12
    },
    {
      "buffer": 0,
      "byteOffset": 6624,
      "byteLength": 6624,
      "target": 34962,
      "byteStride": 12
    },
    {
      "buffer": 0,
      "byteOffset": 13248,
      "byteLength": 4416,
      "target": 34962,
      "byteStride": 8
    },
    {
      "buffer": 0,
      "byteOffset": 17664,
      "byteLength": 16340,
      "target": 34963
    }
  ],
  "accessors": [
    {
      "bufferView": 0,
      "componentType": 5126,
      "count": 552,
      "type": "VEC3",
      "min": [
        -1.7557686567306519,
        -1.7556936740875244,
        -1.0633592637532274e-06
      ],
      "max": [
        1.7557686567306519,
        1.7556923627853394,
        4.628621578216553
      ]
    },
    {
      "bufferView": 1,
      "componentType": 5126,
      "count": 552,
      "type": "VEC3"
    },
    {
      "bufferView": 2,
      "componentType": 5126,
      "count": 552,
      "type": "VEC2"
    },
    {
      "bufferView": 3,
      "componentType": 5123,
      "count": 8169,
      "type": "SCALAR"
    }
  ]
}