{
  "asset": {
    "version": "2.0",
    "generator": "ghost_port nod_to_gltf.py",
    "extras": {
      "source": "/home/scott/Games/xemu/starcraft_ghost/3D/Models/BunkerGun.nod",
      "vertex_count": 363,
      "triangle_count": 2007,
      "vertex_stride": 48,
      "materials": [
        "BunkerGun"
      ]
    }
  },
  "scene": 0,
  "scenes": [
    {
      "name": "BunkerGun",
      "nodes": [
        0
      ]
    }
  ],
  "nodes": [
    {
      "name": "BunkerGun",
      "mesh": 0
    }
  ],
  "meshes": [
    {
      "name": "BunkerGun_mesh",
      "primitives": [
        {
          "attributes": {
            "POSITION": 0,
            "NORMAL": 1,
            "TEXCOORD_0": 2
          },
          "indices": 3,
          "mode": 4
        }
      ]
    }
  ],
  "buffers": [
    {
      "uri": "data:application/octet-stream;base64,",
      "byteLength": 23660
    }
  ],
  "bufferViews": [
    {
      "buffer": 0,
      "byteOffset": 0,
      "byteLength": 4356,
      "target": 34962,
      "byteStride": 12
    },
    {
      "buffer": 0,
      "byteOffset": 4356,
      "byteLength": 4356,
      "target": 34962,
      "byteStride": 12
    },
    {
      "buffer": 0,
      "byteOffset": 8712,
      "byteLength": 2904,
      "target": 34962,
      "byteStride": 8
    },
    {
      "buffer": 0,
      "byteOffset": 11616,
      "byteLength": 12044,
      "target": 34963
    }
  ],
  "accessors": [
    {
      "bufferView": 0,
      "componentType": 5126,
      "count": 363,
      "type": "VEC3",
      "min": [
        -0.9999977946281433,
        -0.9999977946281433,
        -1.0787200927734375
      ],
      "max": [
        0.9999977946281433,
        1.2241621017456055,
        1.882332444190979
      ]
    },
    {
      "bufferView": 1,
      "componentType": 5126,
      "count": 363,
      "type": "VEC3"
    },
    {
      "bufferView": 2,
      "componentType": 5126,
      "count": 363,
      "type": "VEC2"
    },
    {
      "bufferView": 3,
      "componentType": 5123,
      "count": 6021,
      "type": "SCALAR"
    }
  ]
}