{
  "asset": {
    "version": "2.0",
    "generator": "ghost_port nod_to_gltf.py",
    "extras": {
      "source": "/home/scott/Games/xemu/starcraft_ghost/3D/Models/GE_BarrelHighPoly.nod",
      "vertex_count": 214,
      "triangle_count": 758,
      "vertex_stride": 32,
      "materials": [
        "ge_barrel_01"
      ]
    }
  },
  "scene": 0,
  "scenes": [
    {
      "name": "GE_BarrelHighPoly",
      "nodes": [
        0
      ]
    }
  ],
  "nodes": [
    {
      "name": "GE_BarrelHighPoly",
      "mesh": 0
    }
  ],
  "meshes": [
    {
      "name": "GE_BarrelHighPoly_mesh",
      "primitives": [
        {
          "attributes": {
            "POSITION": 0,
            "NORMAL": 1,
            "TEXCOORD_0": 2
          },
          "indices": 3,
          "mode": 4
        }
      ]
    }
  ],
  "buffers": [
    {
      "uri": "data:application/octet-stream;base64,",
      "byteLength": 11396
    }
  ],
  "bufferViews": [
    {
      "buffer": 0,
      "byteOffset": 0,
      "byteLength": 2568,
      "target": 34962,
      "byteStride": 12
    },
    {
      "buffer": 0,
      "byteOffset": 2568,
      "byteLength": 2568,
      "target": 34962,
      "byteStride": 12
    },
    {
      "buffer": 0,
      "byteOffset": 5136,
      "byteLength": 1712,
      "target": 34962,
      "byteStride": 8
    },
    {
      "buffer": 0,
      "byteOffset": 6848,
      "byteLength": 4548,
      "target": 34963
    }
  ],
  "accessors": [
    {
      "bufferView": 0,
      "componentType": 5126,
      "count": 214,
      "type": "VEC3",
      "min": [
        -0.9307476878166199,
        -0.9307484030723572,
        0.0
      ],
      "max": [
        0.9307478070259094,
        0.9307483434677124,
        2.5
      ]
    },
    {
      "bufferView": 1,
      "componentType": 5126,
      "count": 214,
      "type": "VEC3"
    },
    {
      "bufferView": 2,
      "componentType": 5126,
      "count": 214,
      "type": "VEC2"
    },
    {
      "bufferView": 3,
      "componentType": 5123,
      "count": 2274,
      "type": "SCALAR"
    }
  ]
}