{
  "asset": {
    "version": "2.0",
    "generator": "ghost_port nod_to_gltf.py",
    "extras": {
      "source": "/home/scott/Games/xemu/starcraft_ghost/3D/Models/GE_explosivesBarrel_01.nod",
      "vertex_count": 92,
      "triangle_count": 375,
      "vertex_stride": 32,
      "materials": [
        "GE_explosivesBarrel_01",
        "GE_explosivesBarrel_01_glow"
      ]
    }
  },
  "scene": 0,
  "scenes": [
    {
      "name": "GE_explosivesBarrel_01",
      "nodes": [
        0
      ]
    }
  ],
  "nodes": [
    {
      "name": "GE_explosivesBarrel_01",
      "mesh": 0
    }
  ],
  "meshes": [
    {
      "name": "GE_explosivesBarrel_01_mesh",
      "primitives": [
        {
          "attributes": {
            "POSITION": 0,
            "NORMAL": 1,
            "TEXCOORD_0": 2
          },
          "indices": 3,
          "mode": 4
        }
      ]
    }
  ],
  "buffers": [
    {
      "uri": "data:application/octet-stream;base64,",
      "byteLength": 5196
    }
  ],
  "bufferViews": [
    {
      "buffer": 0,
      "byteOffset": 0,
      "byteLength": 1104,
      "target": 34962,
      "byteStride": 12
    },
    {
      "buffer": 0,
      "byteOffset": 1104,
      "byteLength": 1104,
      "target": 34962,
      "byteStride": 12
    },
    {
      "buffer": 0,
      "byteOffset": 2208,
      "byteLength": 736,
      "target": 34962,
      "byteStride": 8
    },
    {
      "buffer": 0,
      "byteOffset": 2944,
      "byteLength": 2252,
      "target": 34963
    }
  ],
  "accessors": [
    {
      "bufferView": 0,
      "componentType": 5126,
      "count": 92,
      "type": "VEC3",
      "min": [
        -0.43529069423675537,
        -0.43529078364372253,
        -7.105427198782324e-17
      ],
      "max": [
        0.4352908730506897,
        0.43529078364372253,
        1.0282355546951294
      ]
    },
    {
      "bufferView": 1,
      "componentType": 5126,
      "count": 92,
      "type": "VEC3"
    },
    {
      "bufferView": 2,
      "componentType": 5126,
      "count": 92,
      "type": "VEC2"
    },
    {
      "bufferView": 3,
      "componentType": 5123,
      "count": 1125,
      "type": "SCALAR"
    }
  ]
}