{
  "asset": {
    "version": "2.0",
    "generator": "ghost_port nod_to_gltf.py",
    "extras": {
      "source": "/home/scott/Games/xemu/starcraft_ghost/3D/Models/GE_Light_Shootable.nod",
      "vertex_count": 229,
      "triangle_count": 1099,
      "vertex_stride": 48,
      "materials": [
        "GE_Light_Shootable_full",
        "GE_Light_Shootable"
      ]
    }
  },
  "scene": 0,
  "scenes": [
    {
      "name": "GE_Light_Shootable",
      "nodes": [
        0
      ]
    }
  ],
  "nodes": [
    {
      "name": "GE_Light_Shootable",
      "mesh": 0
    }
  ],
  "meshes": [
    {
      "name": "GE_Light_Shootable_mesh",
      "primitives": [
        {
          "attributes": {
            "POSITION": 0,
            "NORMAL": 1,
            "TEXCOORD_0": 2
          },
          "indices": 3,
          "mode": 4
        }
      ]
    }
  ],
  "buffers": [
    {
      "uri": "data:application/octet-stream;base64,",
      "byteLength": 13924
    }
  ],
  "bufferViews": [
    {
      "buffer": 0,
      "byteOffset": 0,
      "byteLength": 2748,
      "target": 34962,
      "byteStride": 12
    },
    {
      "buffer": 0,
      "byteOffset": 2748,
      "byteLength": 2748,
      "target": 34962,
      "byteStride": 12
    },
    {
      "buffer": 0,
      "byteOffset": 5496,
      "byteLength": 1832,
      "target": 34962,
      "byteStride": 8
    },
    {
      "buffer": 0,
      "byteOffset": 7328,
      "byteLength": 6596,
      "target": 34963
    }
  ],
  "accessors": [
    {
      "bufferView": 0,
      "componentType": 5126,
      "count": 229,
      "type": "VEC3",
      "min": [
        -0.9645884037017822,
        -0.9733285307884216,
        -0.654653787612915
      ],
      "max": [
        0.9919504523277283,
        2.7422609329223633,
        1.4201159477233887
      ]
    },
    {
      "bufferView": 1,
      "componentType": 5126,
      "count": 229,
      "type": "VEC3"
    },
    {
      "bufferView": 2,
      "componentType": 5126,
      "count": 229,
      "type": "VEC2"
    },
    {
      "bufferView": 3,
      "componentType": 5123,
      "count": 3297,
      "type": "SCALAR"
    }
  ]
}