{
  "asset": {
    "version": "2.0",
    "generator": "ghost_port nod_to_gltf.py",
    "extras": {
      "source": "/home/scott/Games/xemu/starcraft_ghost/3D/Models/GE_lightCaged.nod",
      "vertex_count": 164,
      "triangle_count": 990,
      "vertex_stride": 32,
      "materials": [
        "GE_LightCaged",
        "GE_LightCaged_full"
      ]
    }
  },
  "scene": 0,
  "scenes": [
    {
      "name": "GE_lightCaged",
      "nodes": [
        0
      ]
    }
  ],
  "nodes": [
    {
      "name": "GE_lightCaged",
      "mesh": 0
    }
  ],
  "meshes": [
    {
      "name": "GE_lightCaged_mesh",
      "primitives": [
        {
          "attributes": {
            "POSITION": 0,
            "NORMAL": 1,
            "TEXCOORD_0": 2
          },
          "indices": 3,
          "mode": 4
        }
      ]
    }
  ],
  "buffers": [
    {
      "uri": "data:application/octet-stream;base64,",
      "byteLength": 11188
    }
  ],
  "bufferViews": [
    {
      "buffer": 0,
      "byteOffset": 0,
      "byteLength": 1968,
      "target": 34962,
      "byteStride": 12
    },
    {
      "buffer": 0,
      "byteOffset": 1968,
      "byteLength": 1968,
      "target": 34962,
      "byteStride": 12
    },
    {
      "buffer": 0,
      "byteOffset": 3936,
      "byteLength": 1312,
      "target": 34962,
      "byteStride": 8
    },
    {
      "buffer": 0,
      "byteOffset": 5248,
      "byteLength": 5940,
      "target": 34963
    }
  ],
  "accessors": [
    {
      "bufferView": 0,
      "componentType": 5126,
      "count": 164,
      "type": "VEC3",
      "min": [
        -0.14323732256889343,
        -0.14313839375972748,
        0.0
      ],
      "max": [
        0.14318430423736572,
        0.14328378438949585,
        0.4338134229183197
      ]
    },
    {
      "bufferView": 1,
      "componentType": 5126,
      "count": 164,
      "type": "VEC3"
    },
    {
      "bufferView": 2,
      "componentType": 5126,
      "count": 164,
      "type": "VEC2"
    },
    {
      "bufferView": 3,
      "componentType": 5123,
      "count": 2970,
      "type": "SCALAR"
    }
  ]
}