{
  "asset": {
    "version": "2.0",
    "generator": "ghost_port nod_to_gltf.py",
    "extras": {
      "source": "/home/scott/Games/xemu/starcraft_ghost/3D/Models/gunTurret.nod",
      "vertex_count": 1329,
      "triangle_count": 10031,
      "vertex_stride": 48,
      "materials": [
        "GunTurret_gloss"
      ]
    }
  },
  "scene": 0,
  "scenes": [
    {
      "name": "gunTurret",
      "nodes": [
        0
      ]
    }
  ],
  "nodes": [
    {
      "name": "gunTurret",
      "mesh": 0
    }
  ],
  "meshes": [
    {
      "name": "gunTurret_mesh",
      "primitives": [
        {
          "attributes": {
            "POSITION": 0,
            "NORMAL": 1,
            "TEXCOORD_0": 2
          },
          "indices": 3,
          "mode": 4
        }
      ]
    }
  ],
  "buffers": [
    {
      "uri": "data:application/octet-stream;base64,",
      "byteLength": 102716
    }
  ],
  "bufferViews": [
    {
      "buffer": 0,
      "byteOffset": 0,
      "byteLength": 15948,
      "target": 34962,
      "byteStride": 12
    },
    {
      "buffer": 0,
      "byteOffset": 15948,
      "byteLength": 15948,
      "target": 34962,
      "byteStride": 12
    },
    {
      "buffer": 0,
      "byteOffset": 31896,
      "byteLength": 10632,
      "target": 34962,
      "byteStride": 8
    },
    {
      "buffer": 0,
      "byteOffset": 42528,
      "byteLength": 60188,
      "target": 34963
    }
  ],
  "accessors": [
    {
      "bufferView": 0,
      "componentType": 5126,
      "count": 1329,
      "type": "VEC3",
      "min": [
        -1.0635842084884644,
        -1.93626868724823,
        -2.122454881668091
      ],
      "max": [
        1.947935700416565,
        1.3693917989730835,
        2.1478891372680664
      ]
    },
    {
      "bufferView": 1,
      "componentType": 5126,
      "count": 1329,
      "type": "VEC3"
    },
    {
      "bufferView": 2,
      "componentType": 5126,
      "count": 1329,
      "type": "VEC2"
    },
    {
      "bufferView": 3,
      "componentType": 5123,
      "count": 30093,
      "type": "SCALAR"
    }
  ]
}