{
  "asset": {
    "version": "2.0",
    "generator": "ghost_port nod_to_gltf.py",
    "extras": {
      "source": "/home/scott/Games/xemu/starcraft_ghost/3D/Models/SandbagsSmall.nod",
      "vertex_count": 54,
      "triangle_count": 216,
      "vertex_stride": 32,
      "materials": [
        "MS_Trench_Sandbags"
      ]
    }
  },
  "scene": 0,
  "scenes": [
    {
      "name": "SandbagsSmall",
      "nodes": [
        0
      ]
    }
  ],
  "nodes": [
    {
      "name": "SandbagsSmall",
      "mesh": 0
    }
  ],
  "meshes": [
    {
      "name": "SandbagsSmall_mesh",
      "primitives": [
        {
          "attributes": {
            "POSITION": 0,
            "NORMAL": 1,
            "TEXCOORD_0": 2
          },
          "indices": 3,
          "mode": 4
        }
      ]
    }
  ],
  "buffers": [
    {
      "uri": "data:application/octet-stream;base64,",
      "byteLength": 3024
    }
  ],
  "bufferViews": [
    {
      "buffer": 0,
      "byteOffset": 0,
      "byteLength": 648,
      "target": 34962,
      "byteStride": 12
    },
    {
      "buffer": 0,
      "byteOffset": 648,
      "byteLength": 648,
      "target": 34962,
      "byteStride": 12
    },
    {
      "buffer": 0,
      "byteOffset": 1296,
      "byteLength": 432,
      "target": 34962,
      "byteStride": 8
    },
    {
      "buffer": 0,
      "byteOffset": 1728,
      "byteLength": 1296,
      "target": 34963
    }
  ],
  "accessors": [
    {
      "bufferView": 0,
      "componentType": 5126,
      "count": 54,
      "type": "VEC3",
      "min": [
        -1.3477026224136353,
        -0.8060510158538818,
        -0.26054444909095764
      ],
      "max": [
        1.3035765886306763,
        0.9176092147827148,
        0.6874600052833557
      ]
    },
    {
      "bufferView": 1,
      "componentType": 5126,
      "count": 54,
      "type": "VEC3"
    },
    {
      "bufferView": 2,
      "componentType": 5126,
      "count": 54,
      "type": "VEC2"
    },
    {
      "bufferView": 3,
      "componentType": 5123,
      "count": 648,
      "type": "SCALAR"
    }
  ]
}