{
  "asset": {
    "version": "2.0",
    "generator": "ghost_port nod_to_gltf.py",
    "extras": {
      "source": "/home/scott/Games/xemu/starcraft_ghost/3D/Models/Sandbag_Group_01.nod",
      "vertex_count": 122,
      "triangle_count": 719,
      "vertex_stride": 32,
      "materials": [
        "Sandbag_01"
      ]
    }
  },
  "scene": 0,
  "scenes": [
    {
      "name": "Sandbag_Group_01",
      "nodes": [
        0
      ]
    }
  ],
  "nodes": [
    {
      "name": "Sandbag_Group_01",
      "mesh": 0
    }
  ],
  "meshes": [
    {
      "name": "Sandbag_Group_01_mesh",
      "primitives": [
        {
          "attributes": {
            "POSITION": 0,
            "NORMAL": 1,
            "TEXCOORD_0": 2
          },
          "indices": 3,
          "mode": 4
        }
      ]
    }
  ],
  "buffers": [
    {
      "uri": "data:application/octet-stream;base64,",
      "byteLength": 8220
    }
  ],
  "bufferViews": [
    {
      "buffer": 0,
      "byteOffset": 0,
      "byteLength": 1464,
      "target": 34962,
      "byteStride": 12
    },
    {
      "buffer": 0,
      "byteOffset": 1464,
      "byteLength": 1464,
      "target": 34962,
      "byteStride": 12
    },
    {
      "buffer": 0,
      "byteOffset": 2928,
      "byteLength": 976,
      "target": 34962,
      "byteStride": 8
    },
    {
      "buffer": 0,
      "byteOffset": 3904,
      "byteLength": 4316,
      "target": 34963
    }
  ],
  "accessors": [
    {
      "bufferView": 0,
      "componentType": 5126,
      "count": 122,
      "type": "VEC3",
      "min": [
        -0.593664288520813,
        -0.5759962201118469,
        0.0
      ],
      "max": [
        0.44623759388923645,
        0.5324081778526306,
        0.6037836074829102
      ]
    },
    {
      "bufferView": 1,
      "componentType": 5126,
      "count": 122,
      "type": "VEC3"
    },
    {
      "bufferView": 2,
      "componentType": 5126,
      "count": 122,
      "type": "VEC2"
    },
    {
      "bufferView": 3,
      "componentType": 5123,
      "count": 2157,
      "type": "SCALAR"
    }
  ]
}