{
  "asset": {
    "version": "2.0",
    "generator": "ghost_port nod_to_gltf.py",
    "extras": {
      "source": "/home/scott/Games/xemu/starcraft_ghost/3D/Models/Sandbag_Wall_Side1.nod",
      "vertex_count": 636,
      "triangle_count": 3285,
      "vertex_stride": 32,
      "materials": [
        "Sandbag_01",
        "Sandbag_02"
      ]
    }
  },
  "scene": 0,
  "scenes": [
    {
      "name": "Sandbag_Wall_Side1",
      "nodes": [
        0
      ]
    }
  ],
  "nodes": [
    {
      "name": "Sandbag_Wall_Side1",
      "mesh": 0
    }
  ],
  "meshes": [
    {
      "name": "Sandbag_Wall_Side1_mesh",
      "primitives": [
        {
          "attributes": {
            "POSITION": 0,
            "NORMAL": 1,
            "TEXCOORD_0": 2
          },
          "indices": 3,
          "mode": 4
        }
      ]
    }
  ],
  "buffers": [
    {
      "uri": "data:application/octet-stream;base64,",
      "byteLength": 40064
    }
  ],
  "bufferViews": [
    {
      "buffer": 0,
      "byteOffset": 0,
      "byteLength": 7632,
      "target": 34962,
      "byteStride": 12
    },
    {
      "buffer": 0,
      "byteOffset": 7632,
      "byteLength": 7632,
      "target": 34962,
      "byteStride": 12
    },
    {
      "buffer": 0,
      "byteOffset": 15264,
      "byteLength": 5088,
      "target": 34962,
      "byteStride": 8
    },
    {
      "buffer": 0,
      "byteOffset": 20352,
      "byteLength": 19712,
      "target": 34963
    }
  ],
  "accessors": [
    {
      "bufferView": 0,
      "componentType": 5126,
      "count": 636,
      "type": "VEC3",
      "min": [
        -1.7130815982818604,
        -0.5171252489089966,
        -0.006700356025248766
      ],
      "max": [
        1.8736240863800049,
        0.4897785186767578,
        2.225645065307617
      ]
    },
    {
      "bufferView": 1,
      "componentType": 5126,
      "count": 636,
      "type": "VEC3"
    },
    {
      "bufferView": 2,
      "componentType": 5126,
      "count": 636,
      "type": "VEC2"
    },
    {
      "bufferView": 3,
      "componentType": 5123,
      "count": 9855,
      "type": "SCALAR"
    }
  ]
}