{
  "asset": {
    "version": "2.0",
    "generator": "ghost_port nod_to_gltf.py",
    "extras": {
      "source": "/home/scott/Games/xemu/starcraft_ghost/3D/Models/wallTurret.nod",
      "vertex_count": 487,
      "triangle_count": 2943,
      "vertex_stride": 48,
      "materials": [
        "wallTurret_01"
      ]
    }
  },
  "scene": 0,
  "scenes": [
    {
      "name": "wallTurret",
      "nodes": [
        0
      ]
    }
  ],
  "nodes": [
    {
      "name": "wallTurret",
      "mesh": 0
    }
  ],
  "meshes": [
    {
      "name": "wallTurret_mesh",
      "primitives": [
        {
          "attributes": {
            "POSITION": 0,
            "NORMAL": 1,
            "TEXCOORD_0": 2
          },
          "indices": 3,
          "mode": 4
        }
      ]
    }
  ],
  "buffers": [
    {
      "uri": "data:application/octet-stream;base64,",
      "byteLength": 33244
    }
  ],
  "bufferViews": [
    {
      "buffer": 0,
      "byteOffset": 0,
      "byteLength": 5844,
      "target": 34962,
      "byteStride": 12
    },
    {
      "buffer": 0,
      "byteOffset": 5844,
      "byteLength": 5844,
      "target": 34962,
      "byteStride": 12
    },
    {
      "buffer": 0,
      "byteOffset": 11688,
      "byteLength": 3896,
      "target": 34962,
      "byteStride": 8
    },
    {
      "buffer": 0,
      "byteOffset": 15584,
      "byteLength": 17660,
      "target": 34963
    }
  ],
  "accessors": [
    {
      "bufferView": 0,
      "componentType": 5126,
      "count": 487,
      "type": "VEC3",
      "min": [
        -1.0,
        -1.089402437210083,
        -1.0
      ],
      "max": [
        1.0,
        1.0,
        1.0
      ]
    },
    {
      "bufferView": 1,
      "componentType": 5126,
      "count": 487,
      "type": "VEC3"
    },
    {
      "bufferView": 2,
      "componentType": 5126,
      "count": 487,
      "type": "VEC2"
    },
    {
      "bufferView": 3,
      "componentType": 5123,
      "count": 8829,
      "type": "SCALAR"
    }
  ]
}