{
  "asset": {
    "version": "2.0",
    "generator": "ghost_port nod_to_gltf.py v2",
    "extras": {
      "source": "/home/scott/Games/xemu/starcraft_ghost/3D/Models/121_TrenchCorner_01.nod",
      "vertex_count": 601,
      "triangle_count": 496,
      "mesh_groups": 4,
      "shaders": [
        "MS_Trench_Beam",
        "MS_Trench_Sandbags",
        "MS_Ground_Dark",
        "MS_TrenchFloor_Grate"
      ]
    }
  },
  "scene": 0,
  "scenes": [
    {
      "name": "121_TrenchCorner_01",
      "nodes": [
        0
      ]
    }
  ],
  "nodes": [
    {
      "name": "121_TrenchCorner_01",
      "mesh": 0
    }
  ],
  "meshes": [
    {
      "name": "121_TrenchCorner_01_mesh",
      "primitives": [
        {
          "attributes": {
            "POSITION": 0,
            "NORMAL": 1,
            "TEXCOORD_0": 2
          },
          "indices": 3,
          "mode": 4
        }
      ]
    }
  ],
  "buffers": [
    {
      "uri": "data:application/octet-stream;base64,",
      "byteLength": 22208
    }
  ],
  "bufferViews": [
    {
      "buffer": 0,
      "byteOffset": 0,
      "byteLength": 7212,
      "target": 34962,
      "byteStride": 12
    },
    {
      "buffer": 0,
      "byteOffset": 7212,
      "byteLength": 7212,
      "target": 34962,
      "byteStride": 12
    },
    {
      "buffer": 0,
      "byteOffset": 14424,
      "byteLength": 4808,
      "target": 34962,
      "byteStride": 8
    },
    {
      "buffer": 0,
      "byteOffset": 19232,
      "byteLength": 2976,
      "target": 34963
    }
  ],
  "accessors": [
    {
      "bufferView": 0,
      "componentType": 5126,
      "count": 601,
      "type": "VEC3",
      "min": [
        -4.610069274902344,
        -3.9877898693084717,
        -7.281603813171387
      ],
      "max": [
        4.004174709320068,
        3.963740348815918,
        -1.4209280014038086
      ]
    },
    {
      "bufferView": 1,
      "componentType": 5126,
      "count": 601,
      "type": "VEC3"
    },
    {
      "bufferView": 2,
      "componentType": 5126,
      "count": 601,
      "type": "VEC2"
    },
    {
      "bufferView": 3,
      "componentType": 5123,
      "count": 1488,
      "type": "SCALAR"
    }
  ]
}