{
  "asset": {
    "version": "2.0",
    "generator": "ghost_port nod_to_gltf.py v2",
    "extras": {
      "source": "/home/scott/Games/xemu/starcraft_ghost/3D/Models/battlecruiser.nod",
      "vertex_count": 7619,
      "triangle_count": 2965,
      "mesh_groups": 2,
      "shaders": [
        "Battlecruiser_glo",
        "BattlecruiserHull"
      ]
    }
  },
  "scene": 0,
  "scenes": [
    {
      "name": "battlecruiser",
      "nodes": [
        0
      ]
    }
  ],
  "nodes": [
    {
      "name": "battlecruiser",
      "mesh": 0
    }
  ],
  "meshes": [
    {
      "name": "battlecruiser_mesh",
      "primitives": [
        {
          "attributes": {
            "POSITION": 0,
            "NORMAL": 1,
            "TEXCOORD_0": 2
          },
          "indices": 3,
          "mode": 4
        }
      ]
    }
  ],
  "buffers": [
    {
      "uri": "data:application/octet-stream;base64,",
      "byteLength": 261600
    }
  ],
  "bufferViews": [
    {
      "buffer": 0,
      "byteOffset": 0,
      "byteLength": 91428,
      "target": 34962,
      "byteStride": 12
    },
    {
      "buffer": 0,
      "byteOffset": 91428,
      "byteLength": 91428,
      "target": 34962,
      "byteStride": 12
    },
    {
      "buffer": 0,
      "byteOffset": 182856,
      "byteLength": 60952,
      "target": 34962,
      "byteStride": 8
    },
    {
      "buffer": 0,
      "byteOffset": 243808,
      "byteLength": 17792,
      "target": 34963
    }
  ],
  "accessors": [
    {
      "bufferView": 0,
      "componentType": 5126,
      "count": 7619,
      "type": "VEC3",
      "min": [
        -75.19573211669922,
        -89.45909881591797,
        5.0872650146484375
      ],
      "max": [
        75.19573211669922,
        88.40042877197266,
        48.23542404174805
      ]
    },
    {
      "bufferView": 1,
      "componentType": 5126,
      "count": 7619,
      "type": "VEC3"
    },
    {
      "bufferView": 2,
      "componentType": 5126,
      "count": 7619,
      "type": "VEC2"
    },
    {
      "bufferView": 3,
      "componentType": 5123,
      "count": 8895,
      "type": "SCALAR"
    }
  ]
}