{
  "asset": {
    "version": "2.0",
    "generator": "ghost_port nod_to_gltf.py v2",
    "extras": {
      "source": "/home/scott/Games/xemu/starcraft_ghost/3D/Models/firebat_elite.nod",
      "vertex_count": 2951,
      "triangle_count": 3020,
      "mesh_groups": 13,
      "shaders": [
        "firebat",
        "eliteFirebat_gloss",
        "firebat_flam",
        "eliteFirebat_full"
      ]
    }
  },
  "scene": 0,
  "scenes": [
    {
      "name": "firebat_elite",
      "nodes": [
        0
      ]
    }
  ],
  "nodes": [
    {
      "name": "firebat_elite",
      "mesh": 0
    }
  ],
  "meshes": [
    {
      "name": "firebat_elite_mesh",
      "primitives": [
        {
          "attributes": {
            "POSITION": 0,
            "NORMAL": 1,
            "TEXCOORD_0": 2
          },
          "indices": 3,
          "mode": 4
        }
      ]
    }
  ],
  "buffers": [
    {
      "uri": "data:application/octet-stream;base64,",
      "byteLength": 112552
    }
  ],
  "bufferViews": [
    {
      "buffer": 0,
      "byteOffset": 0,
      "byteLength": 35412,
      "target": 34962,
      "byteStride": 12
    },
    {
      "buffer": 0,
      "byteOffset": 35412,
      "byteLength": 35412,
      "target": 34962,
      "byteStride": 12
    },
    {
      "buffer": 0,
      "byteOffset": 70824,
      "byteLength": 23608,
      "target": 34962,
      "byteStride": 8
    },
    {
      "buffer": 0,
      "byteOffset": 94432,
      "byteLength": 18120,
      "target": 34963
    }
  ],
  "accessors": [
    {
      "bufferView": 0,
      "componentType": 5126,
      "count": 2951,
      "type": "VEC3",
      "min": [
        -1.4811406135559082,
        -0.6081528663635254,
        2.8421708795129297e-16
      ],
      "max": [
        1.4811444282531738,
        0.6399874687194824,
        2.482086181640625
      ]
    },
    {
      "bufferView": 1,
      "componentType": 5126,
      "count": 2951,
      "type": "VEC3"
    },
    {
      "bufferView": 2,
      "componentType": 5126,
      "count": 2951,
      "type": "VEC2"
    },
    {
      "bufferView": 3,
      "componentType": 5123,
      "count": 9060,
      "type": "SCALAR"
    }
  ]
}