{
  "asset": {
    "version": "2.0",
    "generator": "ghost_port nod_to_gltf.py",
    "extras": {
      "source": "/home/scott/Games/xemu/starcraft_ghost/3D/Models/flameTurret_marine.nod",
      "vertex_count": 3033,
      "triangle_count": 24919,
      "vertex_stride": 48,
      "materials": [
        "BattleMarine_gloss",
        "FlameTurret_gloss",
        "Marine1",
        "BattleMarine_full0",
        "BattleMarine_full1",
        "BattleMarine_full"
      ]
    }
  },
  "scene": 0,
  "scenes": [
    {
      "name": "flameTurret_marine",
      "nodes": [
        0
      ]
    }
  ],
  "nodes": [
    {
      "name": "flameTurret_marine",
      "mesh": 0
    }
  ],
  "meshes": [
    {
      "name": "flameTurret_marine_mesh",
      "primitives": [
        {
          "attributes": {
            "POSITION": 0,
            "NORMAL": 1,
            "TEXCOORD_0": 2
          },
          "indices": 3,
          "mode": 4
        }
      ]
    }
  ],
  "buffers": [
    {
      "uri": "data:application/octet-stream;base64,",
      "byteLength": 246572
    }
  ],
  "bufferViews": [
    {
      "buffer": 0,
      "byteOffset": 0,
      "byteLength": 36396,
      "target": 34962,
      "byteStride": 12
    },
    {
      "buffer": 0,
      "byteOffset": 36396,
      "byteLength": 36396,
      "target": 34962,
      "byteStride": 12
    },
    {
      "buffer": 0,
      "byteOffset": 72792,
      "byteLength": 24264,
      "target": 34962,
      "byteStride": 8
    },
    {
      "buffer": 0,
      "byteOffset": 97056,
      "byteLength": 149516,
      "target": 34963
    }
  ],
  "accessors": [
    {
      "bufferView": 0,
      "componentType": 5126,
      "count": 3033,
      "type": "VEC3",
      "min": [
        -1.4364296197891235,
        -2.2186615467071533,
        -1.970158338546753
      ],
      "max": [
        2.4461233615875244,
        1.025472640991211,
        2.4242875576019287
      ]
    },
    {
      "bufferView": 1,
      "componentType": 5126,
      "count": 3033,
      "type": "VEC3"
    },
    {
      "bufferView": 2,
      "componentType": 5126,
      "count": 3033,
      "type": "VEC2"
    },
    {
      "bufferView": 3,
      "componentType": 5123,
      "count": 74757,
      "type": "SCALAR"
    }
  ]
}