{
  "asset": {
    "version": "2.0",
    "generator": "ghost_port nod_to_gltf.py v2",
    "extras": {
      "source": "/home/scott/Games/xemu/starcraft_ghost/3D/Models/gaussRifle_1.nod",
      "vertex_count": 1468,
      "triangle_count": 760,
      "mesh_groups": 4,
      "shaders": [
        "NovaReduxFinal_gloss",
        "GhostRifleNEW2_gloss",
        "GhostRifleNEW2_glo"
      ]
    }
  },
  "scene": 0,
  "scenes": [
    {
      "name": "gaussRifle_1",
      "nodes": [
        0
      ]
    }
  ],
  "nodes": [
    {
      "name": "gaussRifle_1",
      "mesh": 0
    }
  ],
  "meshes": [
    {
      "name": "gaussRifle_1_mesh",
      "primitives": [
        {
          "attributes": {
            "POSITION": 0,
            "NORMAL": 1,
            "TEXCOORD_0": 2
          },
          "indices": 3,
          "mode": 4
        }
      ]
    }
  ],
  "buffers": [
    {
      "uri": "data:application/octet-stream;base64,",
      "byteLength": 51536
    }
  ],
  "bufferViews": [
    {
      "buffer": 0,
      "byteOffset": 0,
      "byteLength": 17616,
      "target": 34962,
      "byteStride": 12
    },
    {
      "buffer": 0,
      "byteOffset": 17616,
      "byteLength": 17616,
      "target": 34962,
      "byteStride": 12
    },
    {
      "buffer": 0,
      "byteOffset": 35232,
      "byteLength": 11744,
      "target": 34962,
      "byteStride": 8
    },
    {
      "buffer": 0,
      "byteOffset": 46976,
      "byteLength": 4560,
      "target": 34963
    }
  ],
  "accessors": [
    {
      "bufferView": 0,
      "componentType": 5126,
      "count": 1468,
      "type": "VEC3",
      "min": [
        0.5670189261436462,
        -0.09847361594438553,
        1.2210662364959717
      ],
      "max": [
        1.454667329788208,
        0.14322082698345184,
        1.4595893621444702
      ]
    },
    {
      "bufferView": 1,
      "componentType": 5126,
      "count": 1468,
      "type": "VEC3"
    },
    {
      "bufferView": 2,
      "componentType": 5126,
      "count": 1468,
      "type": "VEC2"
    },
    {
      "bufferView": 3,
      "componentType": 5123,
      "count": 2280,
      "type": "SCALAR"
    }
  ]
}