{
  "asset": {
    "version": "2.0",
    "generator": "ghost_port nod_to_gltf.py v2",
    "extras": {
      "source": "/home/scott/Games/xemu/starcraft_ghost/3D/Models/Ghost_male.nod",
      "vertex_count": 3522,
      "triangle_count": 3296,
      "mesh_groups": 14,
      "shaders": [
        "Ghost_male_gloss",
        "Ghost_male_scan",
        "Ghost_male_glow",
        "GhostRifleNEW_gloss",
        "GhostRifleNEW_glo"
      ]
    }
  },
  "scene": 0,
  "scenes": [
    {
      "name": "Ghost_male",
      "nodes": [
        0
      ]
    }
  ],
  "nodes": [
    {
      "name": "Ghost_male",
      "mesh": 0
    }
  ],
  "meshes": [
    {
      "name": "Ghost_male_mesh",
      "primitives": [
        {
          "attributes": {
            "POSITION": 0,
            "NORMAL": 1,
            "TEXCOORD_0": 2
          },
          "indices": 3,
          "mode": 4
        }
      ]
    }
  ],
  "buffers": [
    {
      "uri": "data:application/octet-stream;base64,",
      "byteLength": 132480
    }
  ],
  "bufferViews": [
    {
      "buffer": 0,
      "byteOffset": 0,
      "byteLength": 42264,
      "target": 34962,
      "byteStride": 12
    },
    {
      "buffer": 0,
      "byteOffset": 42264,
      "byteLength": 42264,
      "target": 34962,
      "byteStride": 12
    },
    {
      "buffer": 0,
      "byteOffset": 84528,
      "byteLength": 28176,
      "target": 34962,
      "byteStride": 8
    },
    {
      "buffer": 0,
      "byteOffset": 112704,
      "byteLength": 19776,
      "target": 34963
    }
  ],
  "accessors": [
    {
      "bufferView": 0,
      "componentType": 5126,
      "count": 3522,
      "type": "VEC3",
      "min": [
        -1.0950344800949097,
        -0.22343260049819946,
        -0.0010460271732881665
      ],
      "max": [
        2.0854430198669434,
        0.29882314801216125,
        2.055002450942993
      ]
    },
    {
      "bufferView": 1,
      "componentType": 5126,
      "count": 3522,
      "type": "VEC3"
    },
    {
      "bufferView": 2,
      "componentType": 5126,
      "count": 3522,
      "type": "VEC2"
    },
    {
      "bufferView": 3,
      "componentType": 5123,
      "count": 9888,
      "type": "SCALAR"
    }
  ]
}