{
  "asset": {
    "version": "2.0",
    "generator": "ghost_port nod_to_gltf.py v2",
    "extras": {
      "source": "/home/scott/Games/xemu/starcraft_ghost/3D/Models/goliath_boss.nod",
      "vertex_count": 5525,
      "triangle_count": 4452,
      "mesh_groups": 19,
      "shaders": [
        "Goliath_boss_gloss",
        "Goliath_boss_full",
        "Goliath_boss_panel_R",
        "GE_LockDownCircuit_01",
        "GE_stripLights_01_slow",
        "GE_stripLights_01_glo",
        "Goliath_boss_panel_L",
        "Goliath_boss_panel_C"
      ]
    }
  },
  "scene": 0,
  "scenes": [
    {
      "name": "goliath_boss",
      "nodes": [
        0
      ]
    }
  ],
  "nodes": [
    {
      "name": "goliath_boss",
      "mesh": 0
    }
  ],
  "meshes": [
    {
      "name": "goliath_boss_mesh",
      "primitives": [
        {
          "attributes": {
            "POSITION": 0,
            "NORMAL": 1,
            "TEXCOORD_0": 2
          },
          "indices": 3,
          "mode": 4
        }
      ]
    }
  ],
  "buffers": [
    {
      "uri": "data:application/octet-stream;base64,",
      "byteLength": 203512
    }
  ],
  "bufferViews": [
    {
      "buffer": 0,
      "byteOffset": 0,
      "byteLength": 66300,
      "target": 34962,
      "byteStride": 12
    },
    {
      "buffer": 0,
      "byteOffset": 66300,
      "byteLength": 66300,
      "target": 34962,
      "byteStride": 12
    },
    {
      "buffer": 0,
      "byteOffset": 132600,
      "byteLength": 44200,
      "target": 34962,
      "byteStride": 8
    },
    {
      "buffer": 0,
      "byteOffset": 176800,
      "byteLength": 26712,
      "target": 34963
    }
  ],
  "accessors": [
    {
      "bufferView": 0,
      "componentType": 5126,
      "count": 5525,
      "type": "VEC3",
      "min": [
        -3.138267755508423,
        -2.0732381343841553,
        -2.3864263454242973e-08
      ],
      "max": [
        3.138267755508423,
        2.355407476425171,
        6.013033390045166
      ]
    },
    {
      "bufferView": 1,
      "componentType": 5126,
      "count": 5525,
      "type": "VEC3"
    },
    {
      "bufferView": 2,
      "componentType": 5126,
      "count": 5525,
      "type": "VEC2"
    },
    {
      "bufferView": 3,
      "componentType": 5123,
      "count": 13356,
      "type": "SCALAR"
    }
  ]
}