{
  "asset": {
    "version": "2.0",
    "generator": "ghost_port nod_to_gltf.py",
    "extras": {
      "source": "/home/scott/Games/xemu/starcraft_ghost/3D/Models/gunTurret_marine.nod",
      "vertex_count": 3446,
      "triangle_count": 22877,
      "vertex_stride": 48,
      "materials": [
        "GunTurret_gloss",
        "BattleMarine_gloss",
        "Marine1",
        "BattleMarine_full0",
        "BattleMarine_full1",
        "BattleMarine_full"
      ]
    }
  },
  "scene": 0,
  "scenes": [
    {
      "name": "gunTurret_marine",
      "nodes": [
        0
      ]
    }
  ],
  "nodes": [
    {
      "name": "gunTurret_marine",
      "mesh": 0
    }
  ],
  "meshes": [
    {
      "name": "gunTurret_marine_mesh",
      "primitives": [
        {
          "attributes": {
            "POSITION": 0,
            "NORMAL": 1,
            "TEXCOORD_0": 2
          },
          "indices": 3,
          "mode": 4
        }
      ]
    }
  ],
  "buffers": [
    {
      "uri": "data:application/octet-stream;base64,",
      "byteLength": 247536
    }
  ],
  "bufferViews": [
    {
      "buffer": 0,
      "byteOffset": 0,
      "byteLength": 41352,
      "target": 34962,
      "byteStride": 12
    },
    {
      "buffer": 0,
      "byteOffset": 41352,
      "byteLength": 41352,
      "target": 34962,
      "byteStride": 12
    },
    {
      "buffer": 0,
      "byteOffset": 82704,
      "byteLength": 27568,
      "target": 34962,
      "byteStride": 8
    },
    {
      "buffer": 0,
      "byteOffset": 110272,
      "byteLength": 137264,
      "target": 34963
    }
  ],
  "accessors": [
    {
      "bufferView": 0,
      "componentType": 5126,
      "count": 3446,
      "type": "VEC3",
      "min": [
        -1.4313983917236328,
        -2.1934115886688232,
        -0.9998011589050293
      ],
      "max": [
        1.43643319606781,
        1.1881301403045654,
        2.424781322479248
      ]
    },
    {
      "bufferView": 1,
      "componentType": 5126,
      "count": 3446,
      "type": "VEC3"
    },
    {
      "bufferView": 2,
      "componentType": 5126,
      "count": 3446,
      "type": "VEC2"
    },
    {
      "bufferView": 3,
      "componentType": 5123,
      "count": 68631,
      "type": "SCALAR"
    }
  ]
}