{
  "asset": {
    "version": "2.0",
    "generator": "ghost_port nod_to_gltf.py v2",
    "extras": {
      "source": "/home/scott/Games/xemu/starcraft_ghost/3D/Models/hydralisk.nod",
      "vertex_count": 1599,
      "triangle_count": 2037,
      "mesh_groups": 13,
      "shaders": [
        "hydralisk_gloss",
        "Hydralisk_scan_gloss",
        "Hydralisk_full",
        "hydralisk_user2",
        "hydralisk_user3",
        "hydralisk_user1",
        "HydraChest",
        "invisible_scan"
      ]
    }
  },
  "scene": 0,
  "scenes": [
    {
      "name": "hydralisk",
      "nodes": [
        0
      ]
    }
  ],
  "nodes": [
    {
      "name": "hydralisk",
      "mesh": 0
    }
  ],
  "meshes": [
    {
      "name": "hydralisk_mesh",
      "primitives": [
        {
          "attributes": {
            "POSITION": 0,
            "NORMAL": 1,
            "TEXCOORD_0": 2
          },
          "indices": 3,
          "mode": 4
        }
      ]
    }
  ],
  "buffers": [
    {
      "uri": "data:application/octet-stream;base64,",
      "byteLength": 63392
    }
  ],
  "bufferViews": [
    {
      "buffer": 0,
      "byteOffset": 0,
      "byteLength": 19188,
      "target": 34962,
      "byteStride": 12
    },
    {
      "buffer": 0,
      "byteOffset": 19188,
      "byteLength": 19188,
      "target": 34962,
      "byteStride": 12
    },
    {
      "buffer": 0,
      "byteOffset": 38376,
      "byteLength": 12792,
      "target": 34962,
      "byteStride": 8
    },
    {
      "buffer": 0,
      "byteOffset": 51168,
      "byteLength": 12224,
      "target": 34963
    }
  ],
  "accessors": [
    {
      "bufferView": 0,
      "componentType": 5126,
      "count": 1599,
      "type": "VEC3",
      "min": [
        -2.1808016300201416,
        -2.4426114559173584,
        -0.021617820486426353
      ],
      "max": [
        2.1808016300201416,
        0.9117991328239441,
        2.491150379180908
      ]
    },
    {
      "bufferView": 1,
      "componentType": 5126,
      "count": 1599,
      "type": "VEC3"
    },
    {
      "bufferView": 2,
      "componentType": 5126,
      "count": 1599,
      "type": "VEC2"
    },
    {
      "bufferView": 3,
      "componentType": 5123,
      "count": 6111,
      "type": "SCALAR"
    }
  ]
}