{
  "asset": {
    "version": "2.0",
    "generator": "ghost_port nod_to_gltf.py v2",
    "extras": {
      "source": "/home/scott/Games/xemu/starcraft_ghost/3D/Models/marine1Tex.nod",
      "vertex_count": 3415,
      "triangle_count": 3707,
      "mesh_groups": 19,
      "shaders": [
        "BattleMarine_gloss",
        "Marine1",
        "BattleMarine_padRight",
        "BattleMarine_gun",
        "BattleMarine_faceshield",
        "BattleMarine_padLeft",
        "BattleMarine_lightpost",
        "BattleMarine_full1",
        "BattleMarine_full0",
        "BattleMarine_full",
        "BattleMarine_buttflap"
      ]
    }
  },
  "scene": 0,
  "scenes": [
    {
      "name": "marine1Tex",
      "nodes": [
        0
      ]
    }
  ],
  "nodes": [
    {
      "name": "marine1Tex",
      "mesh": 0
    }
  ],
  "meshes": [
    {
      "name": "marine1Tex_mesh",
      "primitives": [
        {
          "attributes": {
            "POSITION": 0,
            "NORMAL": 1,
            "TEXCOORD_0": 2
          },
          "indices": 3,
          "mode": 4
        }
      ]
    }
  ],
  "buffers": [
    {
      "uri": "data:application/octet-stream;base64,",
      "byteLength": 131524
    }
  ],
  "bufferViews": [
    {
      "buffer": 0,
      "byteOffset": 0,
      "byteLength": 40980,
      "target": 34962,
      "byteStride": 12
    },
    {
      "buffer": 0,
      "byteOffset": 40980,
      "byteLength": 40980,
      "target": 34962,
      "byteStride": 12
    },
    {
      "buffer": 0,
      "byteOffset": 81960,
      "byteLength": 27320,
      "target": 34962,
      "byteStride": 8
    },
    {
      "buffer": 0,
      "byteOffset": 109280,
      "byteLength": 22244,
      "target": 34963
    }
  ],
  "accessors": [
    {
      "bufferView": 0,
      "componentType": 5126,
      "count": 3415,
      "type": "VEC3",
      "min": [
        -1.4364296197891235,
        -0.5159386992454529,
        0.0
      ],
      "max": [
        2.3341243267059326,
        0.48452016711235046,
        2.3229570388793945
      ]
    },
    {
      "bufferView": 1,
      "componentType": 5126,
      "count": 3415,
      "type": "VEC3"
    },
    {
      "bufferView": 2,
      "componentType": 5126,
      "count": 3415,
      "type": "VEC2"
    },
    {
      "bufferView": 3,
      "componentType": 5123,
      "count": 11121,
      "type": "SCALAR"
    }
  ]
}