{
  "asset": {
    "version": "2.0",
    "generator": "ghost_port nod_to_gltf.py",
    "extras": {
      "source": "/home/scott/Games/xemu/starcraft_ghost/3D/Models/marineBattlefield.nod",
      "vertex_count": 506,
      "triangle_count": 4425,
      "vertex_stride": 48,
      "materials": [
        "BattleMarine_gloss",
        "BattleMarine_padRight",
        "BattleMarine_gun",
        "BattleMarine_padLeft",
        "BattleMarine_full1",
        "BattleMarine_lightpost",
        "BattleMarine_full0",
        "BattleMarine_full",
        "BattleMarine_buttflap"
      ]
    }
  },
  "scene": 0,
  "scenes": [
    {
      "name": "marineBattlefield",
      "nodes": [
        0
      ]
    }
  ],
  "nodes": [
    {
      "name": "marineBattlefield",
      "mesh": 0
    }
  ],
  "meshes": [
    {
      "name": "marineBattlefield_mesh",
      "primitives": [
        {
          "attributes": {
            "POSITION": 0,
            "NORMAL": 1,
            "TEXCOORD_0": 2
          },
          "indices": 3,
          "mode": 4
        }
      ]
    }
  ],
  "buffers": [
    {
      "uri": "data:application/octet-stream;base64,",
      "byteLength": 42744
    }
  ],
  "bufferViews": [
    {
      "buffer": 0,
      "byteOffset": 0,
      "byteLength": 6072,
      "target": 34962,
      "byteStride": 12
    },
    {
      "buffer": 0,
      "byteOffset": 6072,
      "byteLength": 6072,
      "target": 34962,
      "byteStride": 12
    },
    {
      "buffer": 0,
      "byteOffset": 12144,
      "byteLength": 4048,
      "target": 34962,
      "byteStride": 8
    },
    {
      "buffer": 0,
      "byteOffset": 16192,
      "byteLength": 26552,
      "target": 34963
    }
  ],
  "accessors": [
    {
      "bufferView": 0,
      "componentType": 5126,
      "count": 506,
      "type": "VEC3",
      "min": [
        -0.9901230335235596,
        -0.9992117285728455,
        -0.9567416310310364
      ],
      "max": [
        2.3341243267059326,
        1.4800950288772583,
        2.3229570388793945
      ]
    },
    {
      "bufferView": 1,
      "componentType": 5126,
      "count": 506,
      "type": "VEC3"
    },
    {
      "bufferView": 2,
      "componentType": 5126,
      "count": 506,
      "type": "VEC2"
    },
    {
      "bufferView": 3,
      "componentType": 5123,
      "count": 13275,
      "type": "SCALAR"
    }
  ]
}