{
  "asset": {
    "version": "2.0",
    "generator": "ghost_port nod_to_gltf.py",
    "extras": {
      "source": "/home/scott/Games/xemu/starcraft_ghost/3D/Models/menu_marineR1.nod",
      "vertex_count": 1835,
      "triangle_count": 12329,
      "vertex_stride": 48,
      "materials": [
        "battleMarine_gloss",
        "Marine2",
        "battleMarine_padRight",
        "battleMarine_faceshield",
        "battleMarine_padLeft",
        "battleMarine_full",
        "battleMarine_buttflap"
      ]
    }
  },
  "scene": 0,
  "scenes": [
    {
      "name": "menu_marineR1",
      "nodes": [
        0
      ]
    }
  ],
  "nodes": [
    {
      "name": "menu_marineR1",
      "mesh": 0
    }
  ],
  "meshes": [
    {
      "name": "menu_marineR1_mesh",
      "primitives": [
        {
          "attributes": {
            "POSITION": 0,
            "NORMAL": 1,
            "TEXCOORD_0": 2
          },
          "indices": 3,
          "mode": 4
        }
      ]
    }
  ],
  "buffers": [
    {
      "uri": "data:application/octet-stream;base64,",
      "byteLength": 132696
    }
  ],
  "bufferViews": [
    {
      "buffer": 0,
      "byteOffset": 0,
      "byteLength": 22020,
      "target": 34962,
      "byteStride": 12
    },
    {
      "buffer": 0,
      "byteOffset": 22020,
      "byteLength": 22020,
      "target": 34962,
      "byteStride": 12
    },
    {
      "buffer": 0,
      "byteOffset": 44040,
      "byteLength": 14680,
      "target": 34962,
      "byteStride": 8
    },
    {
      "buffer": 0,
      "byteOffset": 58720,
      "byteLength": 73976,
      "target": 34963
    }
  ],
  "accessors": [
    {
      "bufferView": 0,
      "componentType": 5126,
      "count": 1835,
      "type": "VEC3",
      "min": [
        -1.4313983917236328,
        -0.9998345971107483,
        -1.060775637626648
      ],
      "max": [
        1.43643319606781,
        1.970004677772522,
        2.101372480392456
      ]
    },
    {
      "bufferView": 1,
      "componentType": 5126,
      "count": 1835,
      "type": "VEC3"
    },
    {
      "bufferView": 2,
      "componentType": 5126,
      "count": 1835,
      "type": "VEC2"
    },
    {
      "bufferView": 3,
      "componentType": 5123,
      "count": 36987,
      "type": "SCALAR"
    }
  ]
}