{
  "asset": {
    "version": "2.0",
    "generator": "ghost_port nod_to_gltf.py",
    "extras": {
      "source": "/home/scott/Games/xemu/starcraft_ghost/3D/Models/menu_marineR2.nod",
      "vertex_count": 1137,
      "triangle_count": 12204,
      "vertex_stride": 48,
      "materials": [
        "BattleMarine_gloss",
        "Marine4Chuggins_Head",
        "BattleMarine_faceshield",
        "BattleMarine_full"
      ]
    }
  },
  "scene": 0,
  "scenes": [
    {
      "name": "menu_marineR2",
      "nodes": [
        0
      ]
    }
  ],
  "nodes": [
    {
      "name": "menu_marineR2",
      "mesh": 0
    }
  ],
  "meshes": [
    {
      "name": "menu_marineR2_mesh",
      "primitives": [
        {
          "attributes": {
            "POSITION": 0,
            "NORMAL": 1,
            "TEXCOORD_0": 2
          },
          "indices": 3,
          "mode": 4
        }
      ]
    }
  ],
  "buffers": [
    {
      "uri": "data:application/octet-stream;base64,",
      "byteLength": 109608
    }
  ],
  "bufferViews": [
    {
      "buffer": 0,
      "byteOffset": 0,
      "byteLength": 13644,
      "target": 34962,
      "byteStride": 12
    },
    {
      "buffer": 0,
      "byteOffset": 13644,
      "byteLength": 13644,
      "target": 34962,
      "byteStride": 12
    },
    {
      "buffer": 0,
      "byteOffset": 27288,
      "byteLength": 9096,
      "target": 34962,
      "byteStride": 8
    },
    {
      "buffer": 0,
      "byteOffset": 36384,
      "byteLength": 73224,
      "target": 34963
    }
  ],
  "accessors": [
    {
      "bufferView": 0,
      "componentType": 5126,
      "count": 1137,
      "type": "VEC3",
      "min": [
        -1.4364296197891235,
        -0.9998345971107483,
        -1.0638751983642578
      ],
      "max": [
        0.9995515942573547,
        2.0139622688293457,
        2.101372480392456
      ]
    },
    {
      "bufferView": 1,
      "componentType": 5126,
      "count": 1137,
      "type": "VEC3"
    },
    {
      "bufferView": 2,
      "componentType": 5126,
      "count": 1137,
      "type": "VEC2"
    },
    {
      "bufferView": 3,
      "componentType": 5123,
      "count": 36612,
      "type": "SCALAR"
    }
  ]
}