{
  "asset": {
    "version": "2.0",
    "generator": "ghost_port nod_to_gltf.py",
    "extras": {
      "source": "/home/scott/Games/xemu/starcraft_ghost/3D/Models/menu_marineR3.nod",
      "vertex_count": 1919,
      "triangle_count": 12842,
      "vertex_stride": 48,
      "materials": [
        "BattleMarine_gloss",
        "Marine6Dai_Head",
        "BattleMarine_faceshield",
        "BattleMarine_full"
      ]
    }
  },
  "scene": 0,
  "scenes": [
    {
      "name": "menu_marineR3",
      "nodes": [
        0
      ]
    }
  ],
  "nodes": [
    {
      "name": "menu_marineR3",
      "mesh": 0
    }
  ],
  "meshes": [
    {
      "name": "menu_marineR3_mesh",
      "primitives": [
        {
          "attributes": {
            "POSITION": 0,
            "NORMAL": 1,
            "TEXCOORD_0": 2
          },
          "indices": 3,
          "mode": 4
        }
      ]
    }
  ],
  "buffers": [
    {
      "uri": "data:application/octet-stream;base64,",
      "byteLength": 138460
    }
  ],
  "bufferViews": [
    {
      "buffer": 0,
      "byteOffset": 0,
      "byteLength": 23028,
      "target": 34962,
      "byteStride": 12
    },
    {
      "buffer": 0,
      "byteOffset": 23028,
      "byteLength": 23028,
      "target": 34962,
      "byteStride": 12
    },
    {
      "buffer": 0,
      "byteOffset": 46056,
      "byteLength": 15352,
      "target": 34962,
      "byteStride": 8
    },
    {
      "buffer": 0,
      "byteOffset": 61408,
      "byteLength": 77052,
      "target": 34963
    }
  ],
  "accessors": [
    {
      "bufferView": 0,
      "componentType": 5126,
      "count": 1919,
      "type": "VEC3",
      "min": [
        -1.4364296197891235,
        -0.9998345971107483,
        -0.9955937266349792
      ],
      "max": [
        1.6637248992919922,
        0.9999794363975525,
        2.09554123878479
      ]
    },
    {
      "bufferView": 1,
      "componentType": 5126,
      "count": 1919,
      "type": "VEC3"
    },
    {
      "bufferView": 2,
      "componentType": 5126,
      "count": 1919,
      "type": "VEC2"
    },
    {
      "bufferView": 3,
      "componentType": 5123,
      "count": 38526,
      "type": "SCALAR"
    }
  ]
}