{
  "asset": {
    "version": "2.0",
    "generator": "ghost_port nod_to_gltf.py v2",
    "extras": {
      "source": "/home/scott/Games/xemu/starcraft_ghost/3D/Models/mutalisk.nod",
      "vertex_count": 960,
      "triangle_count": 765,
      "mesh_groups": 6,
      "shaders": [
        "mutalisk_full",
        "mutalisk_mask",
        "mutalisk_gloss"
      ]
    }
  },
  "scene": 0,
  "scenes": [
    {
      "name": "mutalisk",
      "nodes": [
        0
      ]
    }
  ],
  "nodes": [
    {
      "name": "mutalisk",
      "mesh": 0
    }
  ],
  "meshes": [
    {
      "name": "mutalisk_mesh",
      "primitives": [
        {
          "attributes": {
            "POSITION": 0,
            "NORMAL": 1,
            "TEXCOORD_0": 2
          },
          "indices": 3,
          "mode": 4
        }
      ]
    }
  ],
  "buffers": [
    {
      "uri": "data:application/octet-stream;base64,",
      "byteLength": 35312
    }
  ],
  "bufferViews": [
    {
      "buffer": 0,
      "byteOffset": 0,
      "byteLength": 11520,
      "target": 34962,
      "byteStride": 12
    },
    {
      "buffer": 0,
      "byteOffset": 11520,
      "byteLength": 11520,
      "target": 34962,
      "byteStride": 12
    },
    {
      "buffer": 0,
      "byteOffset": 23040,
      "byteLength": 7680,
      "target": 34962,
      "byteStride": 8
    },
    {
      "buffer": 0,
      "byteOffset": 30720,
      "byteLength": 4592,
      "target": 34963
    }
  ],
  "accessors": [
    {
      "bufferView": 0,
      "componentType": 5126,
      "count": 960,
      "type": "VEC3",
      "min": [
        -12.80272388458252,
        -10.246684074401855,
        -1.5176485776901245
      ],
      "max": [
        12.802595138549805,
        2.890289783477783,
        1.0720115900039673
      ]
    },
    {
      "bufferView": 1,
      "componentType": 5126,
      "count": 960,
      "type": "VEC3"
    },
    {
      "bufferView": 2,
      "componentType": 5126,
      "count": 960,
      "type": "VEC2"
    },
    {
      "bufferView": 3,
      "componentType": 5123,
      "count": 2295,
      "type": "SCALAR"
    }
  ]
}