{
  "asset": {
    "version": "2.0",
    "generator": "ghost_port nod_to_gltf.py v2",
    "extras": {
      "source": "/home/scott/Games/xemu/starcraft_ghost/3D/Models/nova.nod",
      "vertex_count": 5765,
      "triangle_count": 5961,
      "mesh_groups": 70,
      "shaders": [
        "NovaReduxFinal_Lights",
        "NovaReduxFinal_gloss",
        "NovaReduxFinal_glo",
        "NovaReduxFinal_unarmed",
        "NovaFace04",
        "NovaFace04_hair",
        "NovaEyelashes",
        "ghostRifleNEW2_unarmed",
        "GhostPistol_unarmed"
      ]
    }
  },
  "scene": 0,
  "scenes": [
    {
      "name": "nova",
      "nodes": [
        0
      ]
    }
  ],
  "nodes": [
    {
      "name": "nova",
      "mesh": 0
    }
  ],
  "meshes": [
    {
      "name": "nova_mesh",
      "primitives": [
        {
          "attributes": {
            "POSITION": 0,
            "NORMAL": 1,
            "TEXCOORD_0": 2
          },
          "indices": 3,
          "mode": 4
        }
      ]
    }
  ],
  "buffers": [
    {
      "uri": "data:application/octet-stream;base64,",
      "byteLength": 220248
    }
  ],
  "bufferViews": [
    {
      "buffer": 0,
      "byteOffset": 0,
      "byteLength": 69180,
      "target": 34962,
      "byteStride": 12
    },
    {
      "buffer": 0,
      "byteOffset": 69180,
      "byteLength": 69180,
      "target": 34962,
      "byteStride": 12
    },
    {
      "buffer": 0,
      "byteOffset": 138360,
      "byteLength": 46120,
      "target": 34962,
      "byteStride": 8
    },
    {
      "buffer": 0,
      "byteOffset": 184480,
      "byteLength": 35768,
      "target": 34963
    }
  ],
  "accessors": [
    {
      "bufferView": 0,
      "componentType": 5126,
      "count": 5765,
      "type": "VEC3",
      "min": [
        -0.871101975440979,
        -0.259159117937088,
        -0.008001035079360008
      ],
      "max": [
        0.871101975440979,
        0.17965026199817657,
        1.8411105871200562
      ]
    },
    {
      "bufferView": 1,
      "componentType": 5126,
      "count": 5765,
      "type": "VEC3"
    },
    {
      "bufferView": 2,
      "componentType": 5126,
      "count": 5765,
      "type": "VEC2"
    },
    {
      "bufferView": 3,
      "componentType": 5123,
      "count": 17883,
      "type": "SCALAR"
    }
  ]
}