{
  "asset": {
    "version": "2.0",
    "generator": "ghost_port nod_to_gltf.py v2",
    "extras": {
      "source": "/home/scott/Games/xemu/starcraft_ghost/3D/Models/siegeTank.nod",
      "vertex_count": 3671,
      "triangle_count": 2866,
      "mesh_groups": 15,
      "shaders": [
        "SiegeTank",
        "SiegeTank_glow",
        "siegeTank_treads_R",
        "SiegeTankLights_glo",
        "siegeTank_treads_L",
        "SiegeTankLights_front"
      ]
    }
  },
  "scene": 0,
  "scenes": [
    {
      "name": "siegeTank",
      "nodes": [
        0
      ]
    }
  ],
  "nodes": [
    {
      "name": "siegeTank",
      "mesh": 0
    }
  ],
  "meshes": [
    {
      "name": "siegeTank_mesh",
      "primitives": [
        {
          "attributes": {
            "POSITION": 0,
            "NORMAL": 1,
            "TEXCOORD_0": 2
          },
          "indices": 3,
          "mode": 4
        }
      ]
    }
  ],
  "buffers": [
    {
      "uri": "data:application/octet-stream;base64,",
      "byteLength": 134668
    }
  ],
  "bufferViews": [
    {
      "buffer": 0,
      "byteOffset": 0,
      "byteLength": 44052,
      "target": 34962,
      "byteStride": 12
    },
    {
      "buffer": 0,
      "byteOffset": 44052,
      "byteLength": 44052,
      "target": 34962,
      "byteStride": 12
    },
    {
      "buffer": 0,
      "byteOffset": 88104,
      "byteLength": 29368,
      "target": 34962,
      "byteStride": 8
    },
    {
      "buffer": 0,
      "byteOffset": 117472,
      "byteLength": 17196,
      "target": 34963
    }
  ],
  "accessors": [
    {
      "bufferView": 0,
      "componentType": 5126,
      "count": 3671,
      "type": "VEC3",
      "min": [
        -3.022925853729248,
        -3.792905807495117,
        -0.13875724375247955
      ],
      "max": [
        3.537034034729004,
        5.121644973754883,
        4.083982944488525
      ]
    },
    {
      "bufferView": 1,
      "componentType": 5126,
      "count": 3671,
      "type": "VEC3"
    },
    {
      "bufferView": 2,
      "componentType": 5126,
      "count": 3671,
      "type": "VEC2"
    },
    {
      "bufferView": 3,
      "componentType": 5123,
      "count": 8598,
      "type": "SCALAR"
    }
  ]
}