{
  "asset": {
    "version": "2.0",
    "generator": "ghost_port nod_to_gltf.py v2",
    "extras": {
      "source": "/home/scott/Games/xemu/starcraft_ghost/3D/Models/ultralisk.nod",
      "vertex_count": 3440,
      "triangle_count": 3896,
      "mesh_groups": 18,
      "shaders": [
        "Ultralisk_gloss",
        "UltraliskPlate3",
        "UltraliskPlate2",
        "UltraliskPlate1",
        "UltraliskPlate0",
        "UltraliskTeeth_masked",
        "UltraliskPlate_masked",
        "Ultralisk_belly",
        "UltraliskPlate5",
        "UltraliskPlate4"
      ]
    }
  },
  "scene": 0,
  "scenes": [
    {
      "name": "ultralisk",
      "nodes": [
        0
      ]
    }
  ],
  "nodes": [
    {
      "name": "ultralisk",
      "mesh": 0
    }
  ],
  "meshes": [
    {
      "name": "ultralisk_mesh",
      "primitives": [
        {
          "attributes": {
            "POSITION": 0,
            "NORMAL": 1,
            "TEXCOORD_0": 2
          },
          "indices": 3,
          "mode": 4
        }
      ]
    }
  ],
  "buffers": [
    {
      "uri": "data:application/octet-stream;base64,",
      "byteLength": 133456
    }
  ],
  "bufferViews": [
    {
      "buffer": 0,
      "byteOffset": 0,
      "byteLength": 41280,
      "target": 34962,
      "byteStride": 12
    },
    {
      "buffer": 0,
      "byteOffset": 41280,
      "byteLength": 41280,
      "target": 34962,
      "byteStride": 12
    },
    {
      "buffer": 0,
      "byteOffset": 82560,
      "byteLength": 27520,
      "target": 34962,
      "byteStride": 8
    },
    {
      "buffer": 0,
      "byteOffset": 110080,
      "byteLength": 23376,
      "target": 34963
    }
  ],
  "accessors": [
    {
      "bufferView": 0,
      "componentType": 5126,
      "count": 3440,
      "type": "VEC3",
      "min": [
        -8.12398624420166,
        -3.5705244541168213,
        -0.11018767207860947
      ],
      "max": [
        8.123988151550293,
        4.496848106384277,
        6.775789260864258
      ]
    },
    {
      "bufferView": 1,
      "componentType": 5126,
      "count": 3440,
      "type": "VEC3"
    },
    {
      "bufferView": 2,
      "componentType": 5126,
      "count": 3440,
      "type": "VEC2"
    },
    {
      "bufferView": 3,
      "componentType": 5123,
      "count": 11688,
      "type": "SCALAR"
    }
  ]
}