{
  "asset": {
    "version": "2.0",
    "generator": "ghost_port nod_to_gltf.py v2",
    "extras": {
      "source": "/home/scott/Games/xemu/starcraft_ghost/3D/Models/vulture.nod",
      "vertex_count": 3040,
      "triangle_count": 2350,
      "mesh_groups": 1,
      "shaders": [
        "Vulture_gloss"
      ]
    }
  },
  "scene": 0,
  "scenes": [
    {
      "name": "vulture",
      "nodes": [
        0
      ]
    }
  ],
  "nodes": [
    {
      "name": "vulture",
      "mesh": 0
    }
  ],
  "meshes": [
    {
      "name": "vulture_mesh",
      "primitives": [
        {
          "attributes": {
            "POSITION": 0,
            "NORMAL": 1,
            "TEXCOORD_0": 2
          },
          "indices": 3,
          "mode": 4
        }
      ]
    }
  ],
  "buffers": [
    {
      "uri": "data:application/octet-stream;base64,",
      "byteLength": 111380
    }
  ],
  "bufferViews": [
    {
      "buffer": 0,
      "byteOffset": 0,
      "byteLength": 36480,
      "target": 34962,
      "byteStride": 12
    },
    {
      "buffer": 0,
      "byteOffset": 36480,
      "byteLength": 36480,
      "target": 34962,
      "byteStride": 12
    },
    {
      "buffer": 0,
      "byteOffset": 72960,
      "byteLength": 24320,
      "target": 34962,
      "byteStride": 8
    },
    {
      "buffer": 0,
      "byteOffset": 97280,
      "byteLength": 14100,
      "target": 34963
    }
  ],
  "accessors": [
    {
      "bufferView": 0,
      "componentType": 5126,
      "count": 3040,
      "type": "VEC3",
      "min": [
        -1.3977186679840088,
        -2.4846460819244385,
        0.18991929292678833
      ],
      "max": [
        1.3894990682601929,
        2.4047892093658447,
        1.5589616298675537
      ]
    },
    {
      "bufferView": 1,
      "componentType": 5126,
      "count": 3040,
      "type": "VEC3"
    },
    {
      "bufferView": 2,
      "componentType": 5126,
      "count": 3040,
      "type": "VEC2"
    },
    {
      "bufferView": 3,
      "componentType": 5123,
      "count": 7050,
      "type": "SCALAR"
    }
  ]
}