{
  "asset": {
    "version": "2.0",
    "generator": "ghost_port nod_to_gltf.py v2",
    "extras": {
      "source": "/home/scott/Games/xemu/starcraft_ghost/3D/Models/wraith.nod",
      "vertex_count": 783,
      "triangle_count": 692,
      "mesh_groups": 1,
      "shaders": [
        "Wraith_gloss"
      ]
    }
  },
  "scene": 0,
  "scenes": [
    {
      "name": "wraith",
      "nodes": [
        0
      ]
    }
  ],
  "nodes": [
    {
      "name": "wraith",
      "mesh": 0
    }
  ],
  "meshes": [
    {
      "name": "wraith_mesh",
      "primitives": [
        {
          "attributes": {
            "POSITION": 0,
            "NORMAL": 1,
            "TEXCOORD_0": 2
          },
          "indices": 3,
          "mode": 4
        }
      ]
    }
  ],
  "buffers": [
    {
      "uri": "data:application/octet-stream;base64,",
      "byteLength": 29208
    }
  ],
  "bufferViews": [
    {
      "buffer": 0,
      "byteOffset": 0,
      "byteLength": 9396,
      "target": 34962,
      "byteStride": 12
    },
    {
      "buffer": 0,
      "byteOffset": 9396,
      "byteLength": 9396,
      "target": 34962,
      "byteStride": 12
    },
    {
      "buffer": 0,
      "byteOffset": 18792,
      "byteLength": 6264,
      "target": 34962,
      "byteStride": 8
    },
    {
      "buffer": 0,
      "byteOffset": 25056,
      "byteLength": 4152,
      "target": 34963
    }
  ],
  "accessors": [
    {
      "bufferView": 0,
      "componentType": 5126,
      "count": 783,
      "type": "VEC3",
      "min": [
        -4.1570844650268555,
        -7.334893226623535,
        -3.900480031967163
      ],
      "max": [
        4.1570844650268555,
        3.45733380317688,
        1.0906927585601807
      ]
    },
    {
      "bufferView": 1,
      "componentType": 5126,
      "count": 783,
      "type": "VEC3"
    },
    {
      "bufferView": 2,
      "componentType": 5126,
      "count": 783,
      "type": "VEC2"
    },
    {
      "bufferView": 3,
      "componentType": 5123,
      "count": 2076,
      "type": "SCALAR"
    }
  ]
}