{
  "asset": {
    "version": "2.0",
    "generator": "ghost_port nod_to_gltf.py v2",
    "extras": {
      "source": "/home/scott/Games/xemu/starcraft_ghost/3D/Models/Zealot.nod",
      "vertex_count": 3780,
      "triangle_count": 4559,
      "mesh_groups": 18,
      "shaders": [
        "zealotBattle_hot",
        "zealotBattle_gloss",
        "ProtossTorso",
        "ProtossCorpse",
        "zealotBattle_glow",
        "zealotBattle_shoulder_R",
        "zealotBattle_arc_R",
        "zealotBattle_chestplate",
        "zealotBattle_arc_L",
        "zealotBattle_scan_gloss",
        "zealotBattle_scan_glow"
      ]
    }
  },
  "scene": 0,
  "scenes": [
    {
      "name": "Zealot",
      "nodes": [
        0
      ]
    }
  ],
  "nodes": [
    {
      "name": "Zealot",
      "mesh": 0
    }
  ],
  "meshes": [
    {
      "name": "Zealot_mesh",
      "primitives": [
        {
          "attributes": {
            "POSITION": 0,
            "NORMAL": 1,
            "TEXCOORD_0": 2
          },
          "indices": 3,
          "mode": 4
        }
      ]
    }
  ],
  "buffers": [
    {
      "uri": "data:application/octet-stream;base64,",
      "byteLength": 148316
    }
  ],
  "bufferViews": [
    {
      "buffer": 0,
      "byteOffset": 0,
      "byteLength": 45360,
      "target": 34962,
      "byteStride": 12
    },
    {
      "buffer": 0,
      "byteOffset": 45360,
      "byteLength": 45360,
      "target": 34962,
      "byteStride": 12
    },
    {
      "buffer": 0,
      "byteOffset": 90720,
      "byteLength": 30240,
      "target": 34962,
      "byteStride": 8
    },
    {
      "buffer": 0,
      "byteOffset": 120960,
      "byteLength": 27356,
      "target": 34963
    }
  ],
  "accessors": [
    {
      "bufferView": 0,
      "componentType": 5126,
      "count": 3780,
      "type": "VEC3",
      "min": [
        -0.7875505089759827,
        -1.0894395112991333,
        -0.01872982271015644
      ],
      "max": [
        0.7875472903251648,
        0.4517437219619751,
        2.544342041015625
      ]
    },
    {
      "bufferView": 1,
      "componentType": 5126,
      "count": 3780,
      "type": "VEC3"
    },
    {
      "bufferView": 2,
      "componentType": 5126,
      "count": 3780,
      "type": "VEC2"
    },
    {
      "bufferView": 3,
      "componentType": 5123,
      "count": 13677,
      "type": "SCALAR"
    }
  ]
}