{
  "asset": {
    "version": "2.0",
    "generator": "ghost_port nod_to_gltf.py v2",
    "extras": {
      "source": "/home/scott/Games/xemu/starcraft_ghost/3D/Models/zergling.nod",
      "vertex_count": 1370,
      "triangle_count": 1382,
      "mesh_groups": 4,
      "shaders": [
        "zergling"
      ]
    }
  },
  "scene": 0,
  "scenes": [
    {
      "name": "zergling",
      "nodes": [
        0
      ]
    }
  ],
  "nodes": [
    {
      "name": "zergling",
      "mesh": 0
    }
  ],
  "meshes": [
    {
      "name": "zergling_mesh",
      "primitives": [
        {
          "attributes": {
            "POSITION": 0,
            "NORMAL": 1,
            "TEXCOORD_0": 2
          },
          "indices": 3,
          "mode": 4
        }
      ]
    }
  ],
  "buffers": [
    {
      "uri": "data:application/octet-stream;base64,",
      "byteLength": 52132
    }
  ],
  "bufferViews": [
    {
      "buffer": 0,
      "byteOffset": 0,
      "byteLength": 16440,
      "target": 34962,
      "byteStride": 12
    },
    {
      "buffer": 0,
      "byteOffset": 16440,
      "byteLength": 16440,
      "target": 34962,
      "byteStride": 12
    },
    {
      "buffer": 0,
      "byteOffset": 32880,
      "byteLength": 10960,
      "target": 34962,
      "byteStride": 8
    },
    {
      "buffer": 0,
      "byteOffset": 43840,
      "byteLength": 8292,
      "target": 34963
    }
  ],
  "accessors": [
    {
      "bufferView": 0,
      "componentType": 5126,
      "count": 1370,
      "type": "VEC3",
      "min": [
        -0.3494841456413269,
        -0.9319222569465637,
        -0.6186082363128662
      ],
      "max": [
        0.3793168365955353,
        0.9428656697273254,
        0.8243545889854431
      ]
    },
    {
      "bufferView": 1,
      "componentType": 5126,
      "count": 1370,
      "type": "VEC3"
    },
    {
      "bufferView": 2,
      "componentType": 5126,
      "count": 1370,
      "type": "VEC2"
    },
    {
      "bufferView": 3,
      "componentType": 5123,
      "count": 4146,
      "type": "SCALAR"
    }
  ]
}